Coordinates
version=1
nRows=5
nColumns=40
inDegrees=yes

Units are S.I. units (second, meters, Newtons, ...)
Angles are in degrees.

endheader
time	pelvis_tilt	pelvis_list	pelvis_rotation	pelvis_tx	pelvis_ty	pelvis_tz	hip_flexion_r	hip_adduction_r	hip_rotation_r	knee_angle_r	knee_angle_r_beta	ankle_angle_r	subtalar_angle_r	mtp_angle_r	hip_flexion_l	hip_adduction_l	hip_rotation_l	knee_angle_l	knee_angle_l_beta	ankle_angle_l	subtalar_angle_l	mtp_angle_l	lumbar_extension	lumbar_bending	lumbar_rotation	arm_flex_r	arm_add_r	arm_rot_r	elbow_flex_r	pro_sup_r	wrist_flex_r	wrist_dev_r	arm_flex_l	arm_add_l	arm_rot_l	elbow_flex_l	pro_sup_l	wrist_flex_l	wrist_dev_l
     46.99250000	     -0.60643662	     -5.47233258	      1.66316754	      0.93935160	      0.90782850	      0.57877293	     13.05431704	      7.61273894	     -9.43715073	     32.25354316	     32.25354316	     20.74144903	    -13.21729307	      1.28136552	     32.63778372	    -15.34918625	      2.89798771	     67.31720682	     67.31720682	     14.80357854	    -19.62446722	     23.61301389	    -12.59376351	      5.92701534	      0.50548234	     21.25500642	    -15.06437887	    -15.06799357	     37.22991792	     46.06928531	      0.00000000	      0.00000000	      5.08213837	     -7.92489896	      2.46737090	     24.47256882	     45.98009563	      0.00000000	      0.00000000
     47.01157143	     -0.60092455	     -5.43882529	      2.36285069	      0.93769265	      0.90707917	      0.57851540	     12.85419153	      7.57785800	     -9.76374968	     32.36933081	     32.36933081	     21.01878459	    -13.63264742	      1.28947640	     33.40371316	    -15.01566671	      3.08692459	     64.97778512	     64.97778512	     15.08375206	    -19.61221382	     23.67482582	    -12.48612170	      5.74015573	      1.23382075	     22.92433712	    -15.92667879	    -15.13444866	     38.26828251	     46.04507573	      0.00000000	      0.00000000	      2.88177052	     -7.49789292	      2.58203290	     23.62336959	     45.91822150	      0.00000000	      0.00000000
     47.03064286	     -0.61461941	     -5.31508375	      3.10947089	      0.93600512	      0.90692661	      0.57794748	     12.55281938	      7.45073467	    -10.05653421	     32.26906749	     32.26906749	     21.26451667	    -14.06226616	      1.52892437	     33.92638219	    -14.52938619	      3.19972103	     62.14265004	     62.14265004	     15.06486010	    -19.59613189	     23.30471213	    -12.45751975	      5.53473638	      0.45093421	     25.01965763	    -15.64298922	    -14.68338165	     41.48500309	     45.90592644	      0.00000000	      0.00000000	      0.03860879	     -7.48238377	      3.03843319	     22.54231627	     45.77121903	      0.00000000	      0.00000000
     47.04971429	     -0.64488045	     -5.20151320	      3.80847898	      0.93438014	      0.90746519	      0.57725539	     12.09217724	      7.30029737	    -10.47901158	     31.86112831	     31.86112831	     21.34734673	    -14.08188056	      1.70949408	     34.18340158	    -13.97948835	      3.35039980	     58.87477305	     58.87477305	     14.84069743	    -19.56457682	     22.79578972	    -12.32778080	      5.24841042	      0.55819007	     26.69033212	    -16.13299550	    -14.17258588	     44.27487782	     45.78361271	      0.00000000	      0.00000000	     -2.45391380	     -7.42843262	      3.41179852	     22.23140077	     45.63602973	      0.00000000	      0.00000000
     47.06878571	     -0.88774761	     -5.06042713	      4.48962937	      0.93264795	      0.90835982	      0.57620809	     11.69774283	      7.08529512	    -10.96721648	     31.14113092	     31.14113092	     21.34177435	    -13.98208677	      1.79475835	     34.39947832	    -13.36322452	      3.39834283	     55.19744824	     55.19744824	     13.97149782	    -19.50238088	     21.08876456	    -12.13130058	      5.01957854	      1.11404887	     27.24412821	    -17.53906668	    -12.29775294	     48.99692929	     45.52912578	      0.00000000	      0.00000000	     -5.15854278	     -7.70649963	      4.94315689	     23.67437960	     45.24762610	      0.00000000	      0.00000000
